<svg id="visual" viewBox="0 0 900 600" width="900" height="600" xmlns="http://www.w3.org/2000/svg" xmlns:xlink="http://www.w3.org/1999/xlink" version="1.1"><rect x="0" y="0" width="900" height="600" fill="#212733"></rect><path d="M0 454L18.8 460.7C37.7 467.3 75.3 480.7 112.8 483.5C150.3 486.3 187.7 478.7 225.2 478C262.7 477.3 300.3 483.7 337.8 487.2C375.3 490.7 412.7 491.3 450.2 490.5C487.7 489.7 525.3 487.3 562.8 484.2C600.3 481 637.7 477 675.2 471.8C712.7 466.7 750.3 460.3 787.8 458.8C825.3 457.3 862.7 460.7 881.3 462.3L900 464L900 601L881.3 601C862.7 601 825.3 601 787.8 601C750.3 601 712.7 601 675.2 601C637.7 601 600.3 601 562.8 601C525.3 601 487.7 601 450.2 601C412.7 601 375.3 601 337.8 601C300.3 601 262.7 601 225.2 601C187.7 601 150.3 601 112.8 601C75.3 601 37.7 601 18.8 601L0 601Z" fill="#c62368"></path><path d="M0 479L18.8 484C37.7 489 75.3 499 112.8 500.8C150.3 502.7 187.7 496.3 225.2 493.5C262.7 490.7 300.3 491.3 337.8 492.2C375.3 493 412.7 494 450.2 496.3C487.7 498.7 525.3 502.3 562.8 500.5C600.3 498.7 637.7 491.3 675.2 491.2C712.7 491 750.3 498 787.8 497.5C825.3 497 862.7 489 881.3 485L900 481L900 601L881.3 601C862.7 601 825.3 601 787.8 601C750.3 601 712.7 601 675.2 601C637.7 601 600.3 601 562.8 601C525.3 601 487.7 601 450.2 601C412.7 601 375.3 601 337.8 601C300.3 601 262.7 601 225.2 601C187.7 601 150.3 601 112.8 601C75.3 601 37.7 601 18.8 601L0 601Z" fill="#d53867"></path><path d="M0 533L18.8 533.7C37.7 534.3 75.3 535.7 112.8 534C150.3 532.3 187.7 527.7 225.2 522.3C262.7 517 300.3 511 337.8 511.3C375.3 511.7 412.7 518.3 450.2 521.5C487.7 524.7 525.3 524.3 562.8 525.8C600.3 527.3 637.7 530.7 675.2 532.2C712.7 533.7 750.3 533.3 787.8 528.5C825.3 523.7 862.7 514.3 881.3 509.7L900 505L900 601L881.3 601C862.7 601 825.3 601 787.8 601C750.3 601 712.7 601 675.2 601C637.7 601 600.3 601 562.8 601C525.3 601 487.7 601 450.2 601C412.7 601 375.3 601 337.8 601C300.3 601 262.7 601 225.2 601C187.7 601 150.3 601 112.8 601C75.3 601 37.7 601 18.8 601L0 601Z" fill="#e34c67"></path><path d="M0 549L18.8 546.3C37.7 543.7 75.3 538.3 112.8 538.8C150.3 539.3 187.7 545.7 225.2 548.3C262.7 551 300.3 550 337.8 547.2C375.3 544.3 412.7 539.7 450.2 538.2C487.7 536.7 525.3 538.3 562.8 540.7C600.3 543 637.7 546 675.2 548.7C712.7 551.3 750.3 553.7 787.8 553C825.3 552.3 862.7 548.7 881.3 546.8L900 545L900 601L881.3 601C862.7 601 825.3 601 787.8 601C750.3 601 712.7 601 675.2 601C637.7 601 600.3 601 562.8 601C525.3 601 487.7 601 450.2 601C412.7 601 375.3 601 337.8 601C300.3 601 262.7 601 225.2 601C187.7 601 150.3 601 112.8 601C75.3 601 37.7 601 18.8 601L0 601Z" fill="#ef5f67"></path><path d="M0 577L18.8 577C37.7 577 75.3 577 112.8 574.3C150.3 571.7 187.7 566.3 225.2 564.8C262.7 563.3 300.3 565.7 337.8 565.7C375.3 565.7 412.7 563.3 450.2 564C487.7 564.7 525.3 568.3 562.8 569C600.3 569.7 637.7 567.3 675.2 568.8C712.7 570.3 750.3 575.7 787.8 576.5C825.3 577.3 862.7 573.7 881.3 571.8L900 570L900 601L881.3 601C862.7 601 825.3 601 787.8 601C750.3 601 712.7 601 675.2 601C637.7 601 600.3 601 562.8 601C525.3 601 487.7 601 450.2 601C412.7 601 375.3 601 337.8 601C300.3 601 262.7 601 225.2 601C187.7 601 150.3 601 112.8 601C75.3 601 37.7 601 18.8 601L0 601Z" fill="#fa7268"></path></svg>